# xmcd
#
# Track frame offsets:
#	150
#	16962
#	34064
#	50341
#	65268
#	80483
#	97723
#	119140
#
# Disc length: 1830 seconds
#
# Revision: 1
# Processed by: cddbd v1.5PL3 Copyright (c) Steve Scherf et al.
# Submitted via: audiograbber 1.81.02
#
DISCID=5d072408
DTITLE=Margriet Hermans - Vrouw van Vijtig
DYEAR=2004
DGENRE=Easy Listening
TTITLE0=De Stroom
TTITLE1=Vrouwen(Guapa)
TTITLE2=Lied van mijn land
TTITLE3=Calorieënblues
TTITLE4=Kleine meid
TTITLE5=Liedje voor Channel
TTITLE6=Vrij om te gaan
TTITLE7=Amazing Grace
EXTD=
EXTT0=
EXTT1=
EXTT2=
EXTT3=
EXTT4=
EXTT5=
EXTT6=
EXTT7=
PLAYORDER=
